<svg width="163" height="18" fill="none" xmlns="http://www.w3.org/2000/svg"><path fill-rule="evenodd" clip-rule="evenodd" d="M52.2506 16.1334c0 .351-.1764.5264-.5291.5264h-6.2139c-.1501 0-.2721-.0439-.3659-.1316s-.1407-.2117-.1407-.3719c0-.1373.0319-.2479.0957-.3318.0638-.084.1632-.1526.2983-.206l.4841-.1488a.5037.5037 0 00.2814-.2174c.0675-.1068.1013-.2594.1013-.4577V8.1805c0-.1068-.0263-.1965-.0788-.269-.0525-.0724-.1501-.1392-.2927-.2002l-.6529-.2174c-.1726-.084-.2964-.1736-.3715-.269-.075-.0953-.1125-.2116-.1125-.349 0-.1373.0469-.2498.1407-.3375l.0368-.0309c.0899-.0671.2071-.1007.3515-.1007h.9879l-.0078-.0669c-.0211-.1337-.0739-.2621-.1583-.3851-.1126-.164-.2401-.349-.3827-.555-.1426-.206-.2702-.452-.3828-.738-.1125-.2862-.1688-.639-.1688-1.0586 0-.9993.3377-1.7984 1.0131-2.3973.6754-.5989 1.6361-.8983 2.8818-.8983.8031 0 1.4691.1297 1.9982.389.5291.2595.9249.6047 1.1876 1.0357.2627.431.394.902.394 1.4132 0 .6027-.1557 1.0547-.4672 1.356-.3114.3014-.711.452-1.1988.452-.5404 0-.9757-.1754-1.3059-.5264-.3302-.3509-.4953-.8162-.4953-1.396V2.0126c0-.267-.0525-.4634-.1576-.5893-.1051-.1259-.2664-.1888-.484-.1888-.2777 0-.4879.0954-.6304.286-.1426.1908-.2139.4654-.2139.824 0 .3662.0844.7095.2533 1.0299.1688.3204.3771.6198.6247.8982.2477.2785.4953.5455.743.801.2477.2556.4559.5074.6248.7553l.0481.0743c.0912.1486.152.2964.1824.4436l.0102.06h1.6674c.1726 0 .3058.0362.3996.1087.0938.0725.1407.185.1407.3376 0 .2288-.0976.4157-.2927.5607-.1951.145-.5028.2174-.9231.2174h-.7992v7.1291c0 .2136.0319.3776.0957.492.0637.1144.1669.1831.3095.206l.9681.1487c.1726.0229.3002.0782.3828.166.0825.0877.1238.2079.1238.3604zm-22.1653.2632c-.6754.3281-1.4634.4921-2.364.4921-.9531 0-1.8068-.2022-2.561-.6065-.7542-.4043-1.349-.9898-1.7842-1.7565-.4353-.7667-.653-1.6993-.653-2.7979 0-1.0604.2271-2.0082.6811-2.8436.454-.8353 1.0863-1.4952 1.8968-1.9796.8105-.4845 1.7561-.7267 2.8368-.7267.9231 0 1.7017.1373 2.3359.412.6341.2746 1.1182.6465 1.4522 1.1157.3339.4691.5009.9936.5009 1.5734 0 .6103-.1745 1.089-.5235 1.4361-.3489.3471-.8236.5207-1.424.5207-.6154 0-1.0826-.1774-1.4015-.5321-.319-.3548-.4784-.841-.4784-1.459v-.7324c0-.3738-.0676-.656-.2027-.8468-.135-.1907-.3264-.286-.5741-.286-.2476 0-.4709.101-.6698.3032-.1988.2022-.3527.5054-.4615.9097-.1088.4044-.1632.904-.1632 1.4991 0 .8544.1257 1.5715.3771 2.1513.2514.5798.5947 1.0146 1.03 1.3045.4353.2899.9306.4348 1.4859.4348.5554 0 1.0207-.082 1.3959-.246.3753-.164.6642-.4406.8668-.8296.1126-.1068.2008-.1755.2646-.206s.1257-.0458.1857-.0458c.0751.0077.137.0439.1858.1087.0487.0649.0694.166.0619.3033-.0601.7476-.289 1.4075-.6867 1.9796-.3978.5722-.9344 1.0223-1.6098 1.3503zm11.4429-.2288c-.8443.4653-1.8255.698-2.9438.698-1.0881 0-2.0431-.227-2.8649-.6809-.8218-.4539-1.4615-1.0814-1.9193-1.8824-.4578-.801-.6867-1.7279-.6867-2.7806 0-1.007.2401-1.913.7204-2.7178.4803-.8048 1.1445-1.4437 1.9926-1.9167.848-.473 1.8236-.7095 2.9268-.7095 1.0957 0 2.0526.2289 2.8706.6866.818.4577 1.4559 1.091 1.9137 1.8996s.6867 1.7431.6867 2.8035c0 1.007-.2383 1.9091-.7149 2.7063-.4765.7972-1.1369 1.4285-1.9812 1.8939zm-2.0882-.4921c-.2327.0458-.4597-.0572-.6811-.309-.2214-.2517-.4315-.6751-.6304-1.2701-.1988-.5951-.3883-1.377-.5684-2.3459-.1727-.9688-.2702-1.766-.2927-2.3916-.0225-.6256.0225-1.0985.1351-1.419.1125-.3203.2851-.5072.5178-.5606.2326-.0458.4596.0572.681.309.2214.2517.4334.675.6361 1.2701.2026.595.394 1.377.5741 2.3458.1801.9689.2795 1.768.2983 2.3974.0188.6293-.03 1.1042-.1464 1.4246-.1163.3204-.2908.5035-.5234.5493zm20.139.9841c.3527 0 .5291-.1754.5291-.5264 0-.1525-.0413-.2727-.1238-.3604-.0826-.0878-.2102-.1431-.3828-.166l-.9681-.1487c-.1426-.0229-.2458-.0916-.3096-.206-.0638-.1144-.0957-.2784-.0957-.492V7.6312h.7993c.4203 0 .728-.0725.9231-.2174.1951-.145.2927-.3319.2927-.5607 0-.1526-.0469-.2651-.1407-.3376-.0938-.0725-.2271-.1087-.3997-.1087h-1.6673l-.0103-.06c-.0304-.1472-.0911-.295-.1823-.4436l-.0481-.0743c-.1689-.248-.3772-.4997-.6248-.7552a25.5605 25.5605 0 01-.743-.801 4.5225 4.5225 0 01-.6248-.8983c-.1688-.3204-.2532-.6637-.2532-1.03 0-.3585.0712-.6331.2138-.8238.1426-.1907.3528-.286.6304-.286.2177 0 .379.0629.4841.1887.1051.1259.1576.3223.1576.5893v1.0185c0 .5798.1651 1.0451.4953 1.396.3302.351.7655.5264 1.3058.5264.4878 0 .8875-.1506 1.1989-.452.3115-.3013.4672-.7533.4672-1.356 0-.5111-.1313-.9822-.394-1.4132-.2627-.431-.6585-.7762-1.1876-1.0356-.5291-.2594-1.1952-.389-1.9982-.389-1.2458 0-2.2064.2993-2.8818.8982-.6754.5989-1.0131 1.398-1.0131 2.3973 0 .4196.0562.7724.1688 1.0585.1126.286.2402.5321.3828.7381.1425.206.2701.391.3827.555.0844.123.1372.2514.1583.3851l.0077.0669h-.9878c-.1444 0-.2616.0336-.3515.1007l-.0368.0309c-.0939.0877-.1408.2002-.1408.3376 0 .1373.0376.2536.1126.349.0751.0953.1989.185.3715.2689l.6529.2174c.1426.061.2402.1278.2927.2003.0525.0724.0788.162.0788.2689v6.6141c0 .1983-.0338.3509-.1013.4577a.504.504 0 01-.2814.2174l-.4841.1488c-.1351.0534-.2345.122-.2983.206-.0638.0839-.0957.1945-.0957.3318 0 .1602.0469.2842.1407.3719s.2158.1316.3659.1316h6.2139zm8.8143-.3318c-.7279.3738-1.5685.5607-2.5216.5607-1.0506 0-1.9737-.2194-2.7692-.658-.7955-.4387-1.4165-1.0528-1.8631-1.8423-.4465-.7896-.6698-1.7032-.6698-2.7407 0-1.0909.2158-2.0464.6473-2.8665.4315-.82 1.0563-1.459 1.8743-1.9167.8181-.4577 1.8012-.6866 2.9494-.6866.9756 0 1.8162.1926 2.5216.578.7054.3852 1.2477.9077 1.6267 1.5676.3789.6599.5684 1.3942.5684 2.2028 0 .3509-.0938.6275-.2814.8296l-.0447.0449c-.185.1722-.4402.2584-.7658.2584h-5.1461l.0111.0528c.1365.6282.3697 1.1313.6997 1.5092.5628.6446 1.3133.9669 2.2514.9669.6004 0 1.1314-.1373 1.5929-.412.4615-.2746.7711-.656.9287-1.1443.0901-.0991.1707-.1659.242-.2002s.1332-.0515.1858-.0515c.075 0 .1388.0305.1914.0915.0525.0611.0788.1641.0788.309 0 .7476-.2027 1.4323-.6079 2.054-.4053.6218-.9719 1.1196-1.6999 1.4934zm-3.9914-5.5861a9.0043 9.0043 0 01-.0161-.5474c0-.7171.0525-1.2817.1576-1.6936.1051-.412.2402-.7038.4053-.8754.1651-.1717.3489-.2575.5516-.2575.2626 0 .5084.225.7373.6752.2289.45.3433 1.1977.3433 2.2428 0 .3204-.1425.4806-.4277.4806h-1.7499l-.0014-.0247zm14.7533 5.5861c-.728.3738-1.5685.5607-2.5216.5607-1.0507 0-1.9738-.2194-2.7693-.658-.7955-.4387-1.4165-1.0528-1.863-1.8423-.4466-.7896-.6698-1.7032-.6698-2.7407 0-1.0909.2157-2.0464.6472-2.8665.4316-.82 1.0563-1.459 1.8744-1.9167.818-.4577 1.8011-.6866 2.9493-.6866.9756 0 1.8162.1926 2.5216.578.7055.3852 1.2477.9077 1.6267 1.5676.379.6599.5685 1.3942.5685 2.2028 0 .3509-.0938.6275-.2815.8296l-.0447.0449c-.1849.1722-.4402.2584-.7658.2584h-5.146l.011.0528c.1365.6282.3698 1.1313.6997 1.5092.5629.6446 1.3133.9669 2.2514.9669.6004 0 1.1314-.1373 1.5929-.412.4616-.2746.7711-.656.9287-1.1443.0901-.0991.1708-.1659.2421-.2002s.1332-.0515.1857-.0515c.0751 0 .1388.0305.1914.0915.0525.0611.0788.1641.0788.309 0 .7476-.2026 1.4323-.6079 2.054-.4053.6218-.9719 1.1196-1.6998 1.4934zm-3.9915-5.5861a9.0043 9.0043 0 01-.0161-.5474c0-.7171.0526-1.2817.1576-1.6936.1051-.412.2402-.7038.4053-.8754.1651-.1717.349-.2575.5516-.2575.2626 0 .5084.225.7373.6752.2289.45.3434 1.1977.3434 2.2428 0 .3204-.1426.4806-.4278.4806h-1.7499l-.0014-.0247zm13.5882 5.7749c-.0938.0953-.2308.143-.4109.143h-5.6286c-.1651 0-.2945-.0458-.3884-.1373-.0938-.0916-.1407-.2174-.1407-.3776 0-.1221.0282-.2232.0845-.3033.0562-.0801.1332-.1545.2307-.2231l.2589-.103c.0976-.0458.1652-.1182.2027-.2174.0375-.0992.0563-.2632.0563-.4921V8.993c0-.1832-.0207-.3148-.062-.3949-.0412-.08-.1106-.143-.2082-.1888l-.2927-.0343c-.1051-.061-.182-.1259-.2308-.1945-.0487-.0687-.0731-.1564-.0731-.2632 0-.122.0375-.2308.1125-.3262.0751-.0953.2027-.1773.3828-.246l3.197-.9269c.1876-.0762.3452-.1296.4728-.1602.1276-.0305.2364-.0457.3265-.0457.1275 0 .2232.0457.287.1373l.0205.0332c.0526.0957.089.2486.109.4588l.0857 1.7782.0195-.0657a4.5298 4.5298 0 01.1255-.3565c.274-.6827.6361-1.19 1.0864-1.5219.4502-.3319.9418-.4978 1.4746-.4978.6455 0 1.1408.2174 1.486.6523.3452.4348.5178 1.0947.5178 1.9796 0 .8774-.1801 1.522-.5403 1.9339-.3603.412-.8255.618-1.3959.618-.5554 0-.9662-.1412-1.2327-.4234-.2664-.2823-.4071-.6828-.4221-1.2016l-.0113-.4577c-.0075-.1754-.0412-.3128-.1013-.412-.06-.0991-.1576-.1487-.2927-.1487-.1351 0-.2533.0706-.3546.2117s-.1782.3566-.2307.6465c-.0526.29-.0788.6599-.0788 1.11v4.028c0 .2136.0337.3833.1013.5092.0675.1259.1726.2041.3152.2346l.8443.1716c.1576.0229.2701.082.3377.1774.0675.0954.1013.2079.1013.3376 0 .1525-.0469.2765-.1407.3719zm9.0001.349c1.1182 0 2.0994-.2327 2.944-.698.844-.4654 1.504-1.0967 1.981-1.8939.477-.7972.715-1.6993.715-2.7063 0-1.0604-.229-1.9949-.687-2.8035-.458-.8087-1.096-1.4419-1.914-1.8996-.8176-.4577-1.7745-.6866-2.8702-.6866-1.1032 0-2.0788.2365-2.9268.7095-.8481.473-1.5122 1.1119-1.9926 1.9167-.4803.8049-.7204 1.7108-.7204 2.7178 0 1.0527.2289 1.9796.6867 2.7806.4578.801 1.0975 1.4285 1.9193 1.8824.8218.4539 1.7768.6809 2.865.6809zm.1744-1.4991c.2214.2518.4485.3548.6811.309.2326-.0458.4071-.2289.5235-.5493.1163-.3204.1651-.7953.1463-1.4246-.0188-.6294-.1182-1.4285-.2983-2.3974-.1801-.9688-.3715-1.7508-.5741-2.3458-.2027-.595-.4147-1.0184-.6361-1.2702-.2213-.2517-.4484-.3547-.681-.309-.2327.0535-.4053.2404-.5178.5608-.1126.3204-.1576.7933-.1351 1.419.0225.6255.12 1.4227.2927 2.3915.1801.9689.3696 1.7508.5684 2.3459.1989.595.4091 1.0184.6304 1.2701zm14.3926 1.522c.63 0 1.148-.1164 1.553-.349.405-.2327.707-.5093.906-.8297.199-.3204.299-.6141.299-.8811 0-.1144-.025-.2098-.073-.2861-.049-.0763-.115-.1144-.197-.1144a.2213.2213 0 00-.102.0229.2281.2281 0 00-.079.0687c-.037.1373-.095.2326-.174.286-.079.0534-.163.0801-.253.0801-.128 0-.224-.0438-.287-.1316-.064-.0877-.096-.204-.096-.349V9.3477c0-1.007-.34-1.787-1.019-2.3401-.679-.5531-1.743-.8297-3.191-.8297-1.126 0-2.066.1412-2.82.4234-.754.2823-1.321.6427-1.7 1.0814-.379.4386-.569.8868-.569 1.3446 0 .4882.141.8601.423 1.1157.281.2555.688.3833 1.221.3833.653 0 1.167-.1774 1.542-.5321.376-.3547.563-.8144.563-1.3789v-.8697c0-.2136.066-.3795.197-.4977.131-.1183.295-.1774.49-.1774.21 0 .377.0782.501.2346.124.1564.185.368.185.635v3.3357l-.06-.013c-.181-.0351-.39-.0551-.629-.0601l-.121-.0012c-1.614 0-2.816.2746-3.608.8239-.792.5492-1.188 1.3159-1.188 2.3 0 .7476.272 1.3617.817 1.8424.544.4806 1.266.7209 2.167.7209.675 0 1.305-.1393 1.891-.4177.439-.2088.796-.4831 1.07-.8228l.015-.0199.017.0512c.086.2474.245.469.476.6649l.071.0579c.416.3243 1.004.4864 1.762.4864zm-3.878-2.1571c.183.248.426.3719.726.3719l.064-.0022c.128-.0089.252-.0447.372-.1073l.036-.0208v-2.9364l-.056-.0172c-.127-.0343-.277-.0515-.45-.0515-.293 0-.527.1374-.704.412-.176.2746-.264.6789-.264 1.213 0 .5111.092.8906.276 1.1385zm11.814 2.1914c1.336 0 2.36-.309 3.073-.9269.713-.6179 1.07-1.4609 1.07-2.5289 0-.6485-.12-1.2168-.361-1.705-.24-.4883-.66-.9212-1.26-1.2988-.601-.3777-1.445-.7343-2.533-1.07-.406-.1296-.719-.2612-.94-.3948-.222-.1334-.374-.2765-.456-.429a1.0133 1.0133 0 01-.124-.4921c0-.2594.094-.4692.281-.6294.188-.1602.466-.2403.833-.2403.511 0 .993.1717 1.447.515.454.3432.955.9306 1.503 1.7622.142.1755.285.3032.428.3833.142.0801.277.105.405.0744.157-.0458.255-.1507.293-.3147.037-.164.03-.3986-.023-.7037l-.293-2.1056c-.03-.2212-.086-.3776-.169-.4691-.082-.0916-.191-.1373-.326-.1373-.12 0-.27.042-.45.1258-.18.084-.359.1698-.535.2575-.176.0877-.31.1316-.4.1316-.082 0-.204-.0458-.365-.1373-.162-.0916-.389-.1831-.682-.2747-.292-.0915-.671-.1373-1.136-.1373-.773 0-1.47.1412-2.089.4234-.619.2823-1.107.6847-1.463 1.2073-.357.5225-.535 1.1462-.535 1.871 0 .6407.133 1.2014.4 1.6821.266.4806.673.8925 1.221 1.2358.548.3433 1.238.6218 2.072.8354.54.1449.954.2918 1.243.4405.289.1488.488.3109.597.4863.109.1755.163.37.163.5836 0 .2823-.094.515-.281.6981-.188.1831-.473.2746-.856.2746-.36 0-.703-.0782-1.03-.2346-.326-.1564-.662-.4253-1.007-.8067-.345-.3815-.732-.904-1.16-1.5677-.127-.1755-.272-.2975-.433-.3662-.161-.0687-.325-.0648-.49.0114-.157.0611-.259.1908-.304.3891-.045.1984-.034.4425.034.7324l.349 2.2771c.053.2289.128.3815.225.4578.098.0763.203.1144.315.1144.128 0 .284-.042.468-.1259l.551-.2517c.184-.0839.332-.1259.445-.1259.112 0 .261.042.444.1259.184.0839.424.1678.721.2517.296.0839.67.1259 1.12.1259zm10.672-.4291c-.496.2632-1.081.3948-1.756.3948-1.141 0-1.999-.2785-2.573-.8354-.574-.5569-.861-1.4342-.861-2.6319V8.2491c0-.1602-.015-.2822-.045-.3662-.03-.0839-.105-.1525-.225-.206l-.529-.1716c-.128-.061-.21-.1354-.248-.2231-.037-.0877-.056-.1964-.056-.3261 0-.1602.056-.2918.169-.3948.112-.103.251-.1545.416-.1545h.552c.068 0 .139-.0267.214-.0801.075-.0534.176-.1602.304-.3204l2.082-1.7508c.15-.1831.301-.3223.451-.4177.15-.0953.3-.143.45-.143.173 0 .308.0534.405.1602l.031.0378c.077.107.116.2622.116.4657l-.001 2.0483h2.353c.165 0 .293.0362.383.1087.09.0725.135.185.135.3376 0 .2136-.094.3967-.281.5492l-.042.0316c-.189.1315-.476.1973-.859.1973h-1.689l.001 5.2181c0 .5721.095.9955.287 1.2701.191.2747.471.412.838.412.158 0 .304-.0343.439-.103s.257-.1583.366-.2689c.109-.1106.212-.2346.31-.3719.097-.1373.191-.2746.281-.412.075-.0305.141-.0171.197.0401.056.0572.081.1735.073.349-.052.6179-.223 1.1615-.512 1.6306-.289.4692-.681.8354-1.176 1.0986zm7.373.3948c.953 0 1.794-.1869 2.522-.5607.728-.3738 1.294-.8716 1.7-1.4934.405-.6217.607-1.3064.607-2.054 0-.1449-.026-.2479-.078-.309-.053-.061-.117-.0915-.192-.0915-.052 0-.114.0172-.185.0515-.072.0343-.152.1011-.242.2002-.158.4883-.468.8697-.929 1.1443-.462.2747-.993.412-1.593.412-.938 0-1.689-.3223-2.251-.9669-.33-.3779-.564-.881-.7-1.5092l-.011-.0528h5.146c.325 0 .581-.0862.766-.2584l.044-.0449c.188-.2021.282-.4787.282-.8296 0-.8086-.19-1.5429-.569-2.2028-.379-.6599-.921-1.1824-1.626-1.5677-.706-.3853-1.546-.5779-2.522-.5779-1.148 0-2.131.2289-2.949.6866-.818.4577-1.443 1.0967-1.875 1.9167-.431.8201-.647 1.7756-.647 2.8665 0 1.0375.223 1.9511.67 2.7407.446.7895 1.067 1.4036 1.863 1.8423.795.4386 1.718.658 2.769.658zm-1.486-6.6942c0 .1894.006.3718.016.5474l.002.0247h1.75c.285 0 .427-.1602.427-.4806 0-1.0451-.114-1.7927-.343-2.2428-.229-.4501-.475-.6752-.737-.6752-.203 0-.387.0858-.552.2575-.165.1716-.3.4634-.405.8754-.105.412-.158.9765-.158 1.6936zm13.194 6.4653c.18 0 .317-.0477.41-.143.094-.0954.141-.2194.141-.3719 0-.1297-.034-.2422-.101-.3376-.068-.0954-.18-.1545-.338-.1774l-.844-.1716c-.143-.0305-.248-.1087-.315-.2346-.068-.1259-.102-.2956-.102-.5092v-4.028c0-.4501.027-.82.079-1.11.053-.2899.13-.5054.231-.6465s.219-.2117.355-.2117c.135 0 .232.0496.292.1488.06.0991.094.2364.102.412l.011.4576c.015.5188.156.9193.422 1.2016.266.2822.677.4234 1.233.4234.57 0 1.035-.206 1.395-.618.361-.4119.541-1.0565.541-1.9339 0-.8849-.173-1.5448-.518-1.9796-.345-.4348-.841-.6523-1.486-.6523-.533 0-1.024.166-1.475.4978-.45.3319-.812.8392-1.086 1.522a4.7872 4.7872 0 00-.126.3564l-.019.066-.086-1.7785c-.02-.2102-.056-.3631-.109-.4588l-.02-.0332c-.064-.0916-.16-.1373-.287-.1373-.09 0-.199.0152-.327.0457-.127.0305-.285.084-.473.1602l-3.197.927c-.18.0686-.307.1506-.382.246a.5137.5137 0 00-.113.326c0 .1069.025.1946.073.2633.049.0686.126.1335.231.1945l.293.0343c.097.0458.167.1087.208.1888.041.0801.062.2117.062.3948v5.8131c0 .2289-.019.3929-.056.4921-.038.0992-.105.1716-.203.2174l-.259.103c-.097.0686-.174.143-.231.2231-.056.0801-.084.1812-.084.3033 0 .1602.047.286.141.3776.093.0915.223.1373.388.1373h5.629zm11.853-.6637c-.713.6179-1.737.9269-3.073.9269-.45 0-.823-.042-1.12-.1259-.296-.0839-.537-.1678-.72-.2517-.184-.0839-.332-.1259-.445-.1259-.113 0-.261.042-.445.1259l-.551.2517c-.184.0839-.34.1259-.467.1259-.113 0-.218-.0381-.316-.1144-.097-.0763-.172-.2289-.225-.4578l-.349-2.2771c-.067-.2899-.079-.534-.034-.7324.045-.1983.147-.328.304-.3891.165-.0762.329-.0801.49-.0114.161.0687.306.1907.433.3662.428.6637.815 1.1862 1.16 1.5677.345.3814.681.6503 1.007.8067.327.1564.67.2346 1.03.2346.383 0 .668-.0915.856-.2746.188-.1831.281-.4158.281-.6981 0-.2136-.054-.4081-.163-.5836-.109-.1754-.307-.3375-.596-.4863-.289-.1487-.704-.2956-1.244-.4405-.833-.2136-1.524-.4921-2.072-.8354-.547-.3433-.955-.7552-1.221-1.2358-.266-.4807-.4-1.0414-.4-1.6822 0-.7247.179-1.3484.535-1.871.357-.5225.844-.925 1.463-1.2072.62-.2822 1.316-.4234 2.089-.4234.465 0 .844.0458 1.137.1373.292.0916.519.1831.681.2747.161.0915.283.1373.366.1373.09 0 .223-.0439.399-.1316.177-.0877.355-.1736.535-.2575.18-.0839.33-.1258.45-.1258.135 0 .244.0457.327.1373.082.0915.139.248.169.4691l.292 2.1056c.053.3051.06.5397.023.7037-.038.164-.135.269-.293.3147-.128.0305-.263.0057-.405-.0744-.143-.08-.285-.2078-.428-.3833-.548-.8316-1.049-1.419-1.503-1.7622-.454-.3434-.936-.515-1.446-.515-.368 0-.646.0801-.833.2403-.188.1602-.282.37-.282.6294 0 .1754.041.3395.124.492.083.1526.235.2957.456.4291.221.1336.535.2652.94.3948 1.088.3357 1.932.6923 2.533 1.07.6.3776 1.02.8105 1.261 1.2988.24.4882.36 1.0565.36 1.705 0 1.068-.357 1.911-1.07 2.5289z" fill="#333D4B"/><path fill-rule="evenodd" clip-rule="evenodd" d="M9.9383 3.0788C7.5109.6477 3.9129.2978 1.9176 2.2999c-1.9964 2.0012-1.6472 5.6078.776 8.0399.6464.648 1.3913 1.1434 2.1776 1.4985.258-1.5026.9977-2.9472 2.1207-4.1331-.372-.133-.7532-.245-1.151-.3541-2.3559-.648-3.5265-2.618-3.8-4.9276.2262.2727.4321.5587.6375.8438.3984.5533.7946 1.1034 1.3319 1.5468.8359.6899 1.7534.9562 2.7572 1.2476l.1166.0339c.4756.138.889.3426 1.2681.5815.9966-.73 2.1207-1.216 3.281-1.4165-.3533-.7882-.8485-1.5338-1.495-2.1818zm-4.1047 9.3369c.1544-1.5047.8817-2.9762 2.0472-4.1445C10.308 5.84 13.906 5.489 15.9014 7.4923c1.9964 2.0011 1.6483 5.6078-.778 8.0399-1.1655 1.1683-2.6335 1.8973-4.1346 2.0531-.2.0197-.3979.0301-.5916.0301-1.2908 0-2.444-.4538-3.2934-1.3054-.978-.9793-1.4297-2.3625-1.2702-3.8943zm3.5504 1.2348c.7956-.6086 1.6566-.8495 2.5931-1.106 2.3558-.648 3.5255-2.618 3.8-4.9276-.2243.2712-.4287.5552-.6326.8384-.3996.5553-.7969 1.1073-1.3368 1.5522-.8385.691-1.7581.9578-2.7664 1.2503l-.1075.0312c-2.305.6708-3.4446 2.6242-3.7078 4.8974.2271-.2734.4351-.5573.642-.8397v-.0001c.4492-.613.8933-1.2191 1.516-1.6961z" fill="#0E8784"/></svg>